<svg xmlns="http://www.w3.org/2000/svg" viewBox="0 0 128 128" width="128" height="128">
  <defs>
    <linearGradient id="bg" x1="0" y1="0" x2="1" y2="1">
      <stop offset="0%" stop-color="#1E88E5"/>
      <stop offset="100%" stop-color="#1565C0"/>
    </linearGradient>
    <clipPath id="circle-clip">
      <circle cx="64" cy="64" r="62"/>
    </clipPath>
  </defs>
  
  <!-- Background circle (larger) -->
  <circle cx="64" cy="64" r="62" fill="url(#bg)"/>
  
  <!-- Everything clipped inside the circle -->
  <g clip-path="url(#circle-clip)">
    <!-- Radio waves (3 arcs emanating from antenna tip, tighter spacing) -->
    <path d="M 50 38 A 16 16 0 0 1 78 38" fill="none" stroke="white" stroke-width="3" stroke-linecap="round" opacity="0.5"/>
    <path d="M 42 30 A 25 25 0 0 1 86 30" fill="none" stroke="white" stroke-width="3" stroke-linecap="round" opacity="0.35"/>
    <path d="M 34 22 A 34 34 0 0 1 94 22" fill="none" stroke="white" stroke-width="3" stroke-linecap="round" opacity="0.2"/>
    
    <!-- Antenna mast -->
    <rect x="61" y="42" width="6" height="34" rx="3" fill="white"/>
    
    <!-- Antenna tip (circle) -->
    <circle cx="64" cy="40" r="5" fill="white"/>
    
    <!-- Base / ground plane -->
    <path d="M 42 82 L 64 76 L 86 82" fill="none" stroke="white" stroke-width="4" stroke-linecap="round" stroke-linejoin="round"/>
    
    <!-- Arrow / mapper symbol -->
    <path d="M 48 96 L 80 96" fill="none" stroke="white" stroke-width="3" stroke-linecap="round" opacity="0.7"/>
    <path d="M 74 90 L 80 96 L 74 102" fill="none" stroke="white" stroke-width="3" stroke-linecap="round" stroke-linejoin="round" opacity="0.7"/>
    
    <!-- Small dots representing discovered → approved -->
    <circle cx="44" cy="96" r="3" fill="white" opacity="0.7"/>
    <circle cx="86" cy="96" r="3" fill="#4CAF50"/>
  </g>
</svg>
